HIERARCHY
ROOT Hips
{
    OFFSET 0.000000 0.000000 0.000000
    CHANNELS 6 Xposition Yposition Zposition Zrotation Xrotation Yrotation
    JOINT Spine
    {
        OFFSET -0.000000 14.517291 0.000000
        CHANNELS 3 Zrotation Xrotation Yrotation
        JOINT Spine1
        {
            OFFSET -0.000000 37.558300 0.000000
            CHANNELS 3 Zrotation Xrotation Yrotation
            JOINT Neck
            {
                OFFSET -0.000000 37.404057 3.400369
                CHANNELS 3 Zrotation Xrotation Yrotation
                JOINT Head
                {
                    OFFSET -0.000000 24.785618 -3.540803
                    CHANNELS 3 Zrotation Xrotation Yrotation
                    End Site
                    {
                        OFFSET -0.000000 35.408028 0.000000
                    }
                }
            }
            JOINT LeftShoulder
            {
                OFFSET 6.992933 33.973492 -0.192664
                CHANNELS 3 Zrotation Xrotation Yrotation
                JOINT LeftArm
                {
                    OFFSET 21.527611 0.000000 0.000000
                    CHANNELS 3 Zrotation Xrotation Yrotation
                    JOINT LeftForeArm
                    {
                        OFFSET 56.353916 0.000000 0.000000
                        CHANNELS 3 Zrotation Xrotation Yrotation
                        JOINT LeftHand
                        {
                            OFFSET 47.774071 0.000000 0.000000
                            CHANNELS 3 Zrotation Xrotation Yrotation
                            End Site
                            {
                                OFFSET 26.556021 0.000000 0.000000
                            }
                        }
                    }
                }
            }
            JOINT RightShoulder
            {
                OFFSET -7.065357 33.973492 -0.192664
                CHANNELS 3 Zrotation Xrotation Yrotation
                JOINT RightArm
                {
                    OFFSET -21.527611 0.000000 0.000000
                    CHANNELS 3 Zrotation Xrotation Yrotation
                    JOINT RightForeArm
                    {
                        OFFSET -56.353916 0.000000 0.000000
                        CHANNELS 3 Zrotation Xrotation Yrotation
                        JOINT RightHand
                        {
                            OFFSET -47.774071 0.000000 0.000000
                            CHANNELS 3 Zrotation Xrotation Yrotation
                            End Site
                            {
                                OFFSET -26.556021 0.000000 0.000000
                            }
                        }
                    }
                }
            }
        }
    }
    JOINT LeftUpLeg
    {
        OFFSET 17.704014 0.000000 0.000000
        CHANNELS 3 Zrotation Xrotation Yrotation
        JOINT LeftLeg
        {
            OFFSET -0.000000 -81.181816 0.000000
            CHANNELS 3 Zrotation Xrotation Yrotation
            JOINT LeftFoot
            {
                OFFSET -0.000000 -62.821102 0.000000
                CHANNELS 3 Zrotation Xrotation Yrotation
                JOINT LeftToeBase
                {
                    OFFSET -0.000000 -11.507608 26.556021
                    CHANNELS 3 Zrotation Xrotation Yrotation
                    End Site
                    {
                        OFFSET -0.000000 0.000000 7.081605
                    }
                }
            }
        }
    }
    JOINT RightUpLeg
    {
        OFFSET -17.704014 0.000000 0.000000
        CHANNELS 3 Zrotation Xrotation Yrotation
        JOINT RightLeg
        {
            OFFSET -0.000000 -81.181816 0.000000
            CHANNELS 3 Zrotation Xrotation Yrotation
            JOINT RightFoot
            {
                OFFSET -0.000000 -62.821102 0.000000
                CHANNELS 3 Zrotation Xrotation Yrotation
                JOINT RightToeBase
                {
                    OFFSET -0.000000 -11.507608 26.556021
                    CHANNELS 3 Zrotation Xrotation Yrotation
                    End Site
                    {
                        OFFSET -0.000000 0.000000 7.081605
                    }
                }
            }
        }
    }
}
MOTION
Frames:    12
Frame Time:    0.008333
12.442109    157.415771    -77.898804    -1.443245    -2.088133    -22.793680    2.813049    -0.492404    1.442583    0.776230    -1.722799    0.488606    13.005290    2.281383    10.721686    -8.362823    -0.971731    8.230392    0.988644    9.314457    -12.045514    -37.882282    13.220658    -39.931522    31.168795    -40.857822    -47.046406    -22.112955    -23.429218    -33.497044    -2.753242    5.587203    -2.764224    37.130638    12.426505    70.716110    1.831215    -14.137671    92.030365    12.459722    -13.517133    22.927034    16.028666    -17.761518    -5.430385    -9.511108    14.388934    -12.982849    -12.172909    0.827822    40.630478    0.000000    0.000000    0.000000    -8.260713    10.690456    -7.150012    5.173451    14.461121    -4.669347    4.655269    -19.500324    -9.189876    0.000000    0.000000    0.000000    
12.562259    157.483765    -77.820396    -1.373498    -1.871128    -22.849085    2.709413    -0.360195    1.499991    0.876767    -1.863983    0.511489    12.983934    2.222143    10.800199    -8.384456    -1.038312    8.300154    0.929810    9.348720    -12.049403    -37.813961    13.190118    -39.992100    31.174793    -40.861061    -47.029488    -22.103098    -23.428053    -33.550915    -2.834051    5.608293    -2.772801    37.150257    12.428825    70.764442    1.810058    -14.165133    91.969322    12.466690    -13.524929    22.881994    16.027906    -17.941788    -5.396059    -9.526246    14.368114    -12.964625    -12.144167    0.844780    40.681644    0.000000    0.000000    0.000000    -8.269209    10.636728    -7.249461    5.129507    14.042773    -4.645214    4.717815    -19.198591    -9.106303    0.000000    0.000000    0.000000    
12.693294    157.556076    -77.752235    -1.301057    -1.625529    -22.911480    2.659774    -0.285169    1.554022    0.888412    -1.939335    0.530969    12.955122    2.236288    10.824176    -8.337273    -1.243858    8.322973    0.939887    9.352721    -12.037669    -37.745544    13.243044    -40.069771    31.305878    -40.952538    -46.944187    -22.073908    -23.515924    -33.554890    -2.834768    5.594717    -2.727599    37.134693    12.413454    70.782898    1.793611    -14.241305    91.913155    12.504857    -13.567544    22.954458    16.034531    -18.157084    -5.314861    -9.524977    14.360359    -12.928251    -12.122968    0.888159    40.692890    0.000000    0.000000    0.000000    -8.273166    10.471020    -7.272132    5.092241    13.787928    -4.722039    4.826342    -18.929518    -9.000171    0.000000    0.000000    0.000000    
12.820546    157.624695    -77.681053    -1.221379    -1.383619    -22.957222    2.601607    -0.222017    1.599280    0.857062    -1.997615    0.546516    13.045216    2.240206    10.830622    -8.380282    -1.431709    8.298291    0.993012    9.317258    -12.046467    -37.773979    13.186469    -40.124729    31.313129    -40.921265    -46.943672    -22.126427    -23.455961    -33.574135    -2.769719    5.543010    -2.700357    37.072754    12.430133    70.778145    1.747992    -14.322953    91.873543    12.527332    -13.600213    22.933054    16.034105    -18.368858    -5.288924    -9.540868    14.329832    -12.871219    -12.096304    0.929390    40.715839    0.000000    0.000000    0.000000    -8.270281    10.320031    -7.324816    5.035532    13.511012    -4.780789    4.925010    -18.660200    -8.919370    0.000000    0.000000    0.000000    
12.945485    157.693542    -77.608170    -1.155015    -1.147916    -23.000015    2.560226    -0.164018    1.646386    0.857827    -2.055034    0.563003    13.034742    2.264249    10.852161    -8.347120    -1.628749    8.315931    0.988122    9.322169    -12.075146    -37.740116    13.113704    -40.149506    31.251959    -40.938614    -47.011108    -22.084824    -23.499943    -33.547813    -2.772827    5.535903    -2.642467    37.065205    12.406800    70.769745    1.747585    -14.390974    91.824448    12.584036    -13.649924    22.979321    16.045099    -18.580429    -5.261393    -9.562692    14.319926    -12.816535    -12.066818    0.962269    40.735077    0.000000    0.000000    0.000000    -8.257562    10.184895    -7.409871    4.974432    13.229654    -4.782742    5.015475    -18.381248    -8.858755    0.000000    0.000000    0.000000    
13.074183    157.761856    -77.528343    -1.074680    -0.917952    -23.039816    2.490709    -0.088097    1.688415    0.910083    -2.109100    0.579069    12.941108    2.222250    10.866277    -8.268574    -1.801078    8.337958    0.958703    9.279430    -12.023721    -37.596519    13.303043    -40.256058    31.543108    -41.063488    -46.770226    -22.133324    -23.571966    -33.617680    -2.853823    5.503998    -2.659590    37.063213    12.412250    70.847305    1.742424    -14.421408    91.794777    12.546272    -13.687341    22.932209    16.035942    -18.792341    -5.211348    -9.576295    14.315503    -12.779768    -12.038417    1.000828    40.752422    0.000000    0.000000    0.000000    -8.269720    10.059045    -7.486432    4.932540    12.938472    -4.751587    5.110590    -18.114338    -8.846128    0.000000    0.000000    0.000000    
13.194351    157.825394    -77.452805    -1.003585    -0.691413    -23.066319    2.459401    -0.037115    1.714022    0.837844    -2.133775    0.586803    12.994325    2.176009    10.874587    -8.219460    -1.933059    8.332673    1.019415    9.230551    -12.027431    -37.620979    13.251123    -40.286259    31.527599    -41.052814    -46.813919    -22.136694    -23.553698    -33.604843    -2.774726    5.455486    -2.616207    37.004616    12.404928    70.841286    1.682332    -14.496127    91.735764    12.566729    -13.692856    22.962086    16.036818    -19.010345    -5.183798    -9.601187    14.326004    -12.723960    -12.008738    1.027976    40.757904    0.000000    0.000000    0.000000    -8.249977    10.013797    -7.562093    4.869277    12.485622    -4.778177    5.196086    -17.794342    -8.774480    0.000000    0.000000    0.000000    
13.313796    157.883301    -77.359207    -0.926967    -0.467751    -23.092247    2.430660    0.011309    1.757993    0.798710    -2.190604    0.601461    12.980933    2.168961    10.871263    -8.159290    -2.073626    8.329820    1.030643    9.262063    -12.036728    -37.544811    13.245474    -40.374496    31.631792    -41.080704    -46.715164    -22.163900    -23.551867    -33.673096    -2.767860    5.483962    -2.602677    37.003998    12.350857    70.879364    1.676560    -14.493254    91.709824    12.573581    -13.682413    22.959824    16.028898    -19.218567    -5.159853    -9.621222    14.329800    -12.700697    -11.969664    1.033581    40.786015    0.000000    0.000000    0.000000    -8.248636    9.908259    -7.602140    4.817426    12.183148    -4.875699    5.318413    -17.527367    -8.668361    0.000000    0.000000    0.000000    
13.438169    157.937866    -77.267029    -0.851172    -0.241110    -23.131655    2.391620    0.066769    1.799005    0.789388    -2.258805    0.615848    12.972869    2.166852    10.868956    -8.142060    -2.218535    8.320830    1.005502    9.217957    -12.093382    -37.521992    13.228068    -40.314690    31.644579    -41.111465    -46.743355    -22.160410    -23.577902    -33.663055    -2.798880    5.425264    -2.570793    36.981068    12.406423    70.873192    1.595768    -14.573150    91.657028    12.507095    -13.695590    22.940296    16.025406    -19.427704    -5.100562    -9.633632    14.342981    -12.692146    -11.913371    1.043477    40.796345    0.000000    0.000000    0.000000    -8.254328    9.805066    -7.619905    4.790227    11.860372    -5.010982    5.423062    -17.256945    -8.554102    0.000000    0.000000    0.000000    
13.552003    157.997589    -77.183319    -0.780344    -0.013804    -23.152592    2.361639    0.071301    1.814206    0.768294    -2.268510    0.620569    12.984928    2.233342    10.881862    -8.159064    -2.439803    8.322269    1.000713    9.225432    -12.087992    -37.467468    13.180141    -40.364582    31.634989    -41.136799    -46.740932    -22.168751    -23.603981    -33.699673    -2.807212    5.534688    -2.560309    36.904137    12.334260    71.020851    1.508789    -14.677159    91.566078    12.577120    -13.692181    22.979792    16.028908    -19.644068    -5.084668    -9.660936    14.348340    -12.664536    -11.875974    1.063896    40.823765    0.000000    0.000000    0.000000    -8.242270    9.703053    -7.690226    4.738268    11.547922    -5.049132    5.527013    -16.983276    -8.491091    0.000000    0.000000    0.000000    
13.662354    158.053040    -77.093246    -0.709983    0.207617    -23.169107    2.664649    -0.731647    1.624404    0.321648    -0.714358    0.537591    12.688944    1.714638    11.075727    -7.769676    -2.825631    8.541564    1.342526    8.534452    -11.613397    -36.915508    13.887380    -40.804100    32.682713    -41.752796    -45.686607    -22.377884    -24.150753    -33.842384    -3.204221    4.899443    -2.221828    37.073441    12.316981    71.361916    1.234877    -15.111935    91.269440    12.720267    -13.811887    23.057932    16.026037    -19.860598    -5.046689    -9.677684    14.372494    -12.651285    -11.826875    1.078606    40.833233    0.000000    0.000000    0.000000    -8.238331    9.609492    -7.724293    4.714320    11.240867    -5.116695    5.625860    -16.726362    -8.449899    0.000000    0.000000    0.000000    
13.776331    158.107574    -76.997917    -0.630504    0.425915    -23.189629    2.287982    0.139714    1.893456    0.713913    -2.329895    0.646708    12.963695    2.100214    10.854015    -8.043829    -2.579891    8.289512    1.023115    9.133197    -12.136703    -37.408875    13.246827    -40.405476    31.777742    -41.239418    -46.674019    -22.191244    -23.678463    -33.714771    -2.807375    5.401803    -2.523140    36.884510    12.351385    70.969795    1.382206    -14.719878    91.507431    12.596856    -13.601808    22.993362    16.016251    -20.073984    -5.009733    -9.700795    14.395555    -12.662077    -11.797557    1.069052    40.883209    0.000000    0.000000    0.000000    -8.248981    9.524660    -7.730787    4.704681    10.910767    -5.223024    5.689845    -16.458540    -8.389544    0.000000    0.000000    0.000000    
